<svg xmlns="http://www.w3.org/2000/svg" viewBox="0 0 1600 640" width="1600" height="640">
<defs>
  <radialGradient id="bg" cx="50%" cy="42%" r="60%">
    <stop offset="0" stop-color="#1b1430"/><stop offset="55%" stop-color="#100c18"/><stop offset="100%" stop-color="#0C0A10"/>
  </radialGradient>
  <filter id="soft" x="-40%" y="-40%" width="180%" height="180%">
    <feGaussianBlur stdDeviation="6" result="b"/><feMerge><feMergeNode in="b"/><feMergeNode in="SourceGraphic"/></feMerge>
  </filter>
</defs>
<rect width="1600" height="640" fill="url(#bg)"/>
<g filter="url(#soft)"><line x1="824.19" y1="263.96" x2="845.47" y2="276.25" stroke="#B69CF5" stroke-width="4.3" stroke-opacity="0.55" stroke-linecap="round"/><line x1="800.00" y1="277.93" x2="800.00" y2="302.51" stroke="#B69CF5" stroke-width="4.3" stroke-opacity="0.55" stroke-linecap="round"/><line x1="775.81" y1="263.96" x2="754.53" y2="276.25" stroke="#B69CF5" stroke-width="4.3" stroke-opacity="0.55" stroke-linecap="round"/><line x1="775.81" y1="236.04" x2="754.53" y2="223.75" stroke="#B69CF5" stroke-width="4.3" stroke-opacity="0.55" stroke-linecap="round"/><line x1="800.00" y1="222.07" x2="800.00" y2="197.49" stroke="#B69CF5" stroke-width="4.3" stroke-opacity="0.55" stroke-linecap="round"/><line x1="824.19" y1="236.04" x2="845.47" y2="223.75" stroke="#B69CF5" stroke-width="4.3" stroke-opacity="0.55" stroke-linecap="round"/><path d="M832.25 250.00 L816.13 277.93 L783.88 277.93 L767.75 250.00 L783.88 222.07 L816.13 222.07 Z" fill="none" stroke="#8257e6" stroke-width="6.449999999999999" stroke-linejoin="round"/><path d="M901.91 290.22 L885.78 318.15 L853.53 318.15 L837.41 290.22 L853.53 262.29 L885.78 262.29 Z" fill="none" stroke="#B69CF5" stroke-width="4.73" stroke-linejoin="round"/><path d="M832.25 330.44 L816.13 358.37 L783.88 358.37 L767.75 330.44 L783.88 302.51 L816.13 302.51 Z" fill="none" stroke="#B69CF5" stroke-width="4.73" stroke-linejoin="round"/><path d="M762.59 290.22 L746.47 318.15 L714.22 318.15 L698.09 290.22 L714.22 262.29 L746.47 262.29 Z" fill="none" stroke="#B69CF5" stroke-width="4.73" stroke-linejoin="round"/><path d="M762.59 209.78 L746.47 237.71 L714.22 237.71 L698.09 209.78 L714.22 181.85 L746.47 181.85 Z" fill="none" stroke="#B69CF5" stroke-width="4.73" stroke-linejoin="round"/><path d="M832.25 169.56 L816.13 197.49 L783.88 197.49 L767.75 169.56 L783.88 141.63 L816.13 141.63 Z" fill="none" stroke="#B69CF5" stroke-width="4.73" stroke-linejoin="round"/><path d="M901.91 209.78 L885.78 237.71 L853.53 237.71 L837.41 209.78 L853.53 181.85 L885.78 181.85 Z" fill="none" stroke="#B69CF5" stroke-width="4.73" stroke-linejoin="round"/><circle cx="800" cy="250" r="12.899999999999999" fill="#8257e6"/></g>
<text x="800" y="470" text-anchor="middle" font-family="Inter, 'Helvetica Neue', Arial, sans-serif" font-size="92" font-weight="700" letter-spacing="14" fill="#FFFFFF">HAVEMIND</text>
<text x="800" y="522" text-anchor="middle" font-family="Inter, 'Helvetica Neue', Arial, sans-serif" font-size="30" font-weight="500" letter-spacing="2" fill="#B69CF5">one shared brain for your team and their AIs</text>
<text x="800" y="566" text-anchor="middle" font-family="Inter, 'Helvetica Neue', Arial, sans-serif" font-size="23" font-weight="400" letter-spacing="1" fill="#9AA1AC">a real-time, self-hosted hive mind for Obsidian, everyone writes to one live vault</text>
</svg>